#!OML:ASF X:\für Bonn\!DataBase\2005_08_11_Bastian_Final\c3d\Bastian.ASF
:FULLY-SPECIFIED
:DEGREES
307
root 1.71818 1.97143 24.4491 -793.081 -174.197 -727.381
lowerback 73.8437 6.33966 4.95376
upperback 20.4416 -10.9568 0.227813
thorax 2.58049 -14.2934 1.8433
lowerneck -16.3985 -1.68465 -0.962455
upperneck 0.520602 -1.62279 -1.24504
head 3.0506 -0.716001 -0.357031
rclavicle -9.37767e-014 -4.11484e-014
rhumerus -54.3581 14.7757 -98.7028
rradius 55.6164
rwrist -44.2735
rhand -36.5378 -18.4717
rfingers 7.12502
rthumb -9.6287 -48.2317
lclavicle -9.37767e-014 -4.11484e-014
lhumerus 19.1034 -26.819 13.5936
lradius 57.0716
lwrist 15.7707
lhand -3.14408 -17.0282
lfingers 7.12502
lthumb 22.5757 11.6717
rfemur -61.987 -4.36006 22.5477
rtibia 93.48
rfoot 12.094 -3.99026
rtoes -0.939943
lfemur -75.6186 48.2289 -12.7279
ltibia 153.126
lfoot -6.04193 -30.1286
ltoes -32.5885
308
root 1.72246 1.93446 24.4463 -793.183 -173.885 -727.347
lowerback 74.0216 6.31538 4.89551
upperback 20.3642 -10.9701 0.19851
thorax 2.50374 -14.276 1.85859
lowerneck -16.3533 -1.74246 -1.08798
upperneck 0.507219 -1.68429 -1.11396
head 3.03957 -0.7414 -0.29564
rclavicle -1.20712e-013 -4.18939e-014
rhumerus -54.9834 14.7439 -98.8263
rradius 56.2417
rwrist -44.4263
rhand -36.4993 -18.5262
rfingers 7.12502
rthumb -9.5916 -48.2879
lclavicle -1.20712e-013 -4.18939e-014
lhumerus 19.1812 -27.0137 13.6871
lradius 56.7783
lwrist 15.7527
lhand -3.17663 -17.1322
lfingers 7.12502
lthumb 22.5444 11.5716
rfemur -61.989 -4.45352 22.2301
rtibia 93.5807
rfoot 12.3935 -3.95173
rtoes -0.662108
lfemur -76.314 47.3743 -13.4364
ltibia 153.227
lfoot -5.78571 -29.9183
ltoes -32.8706
309
root 1.72781 1.90159 24.4481 -793.299 -173.554 -727.316
lowerback 74.1978 6.28686 4.8582
upperback 20.3182 -10.9952 0.153994
thorax 2.46151 -14.2692 1.84406
lowerneck -16.3759 -1.7952 -1.18811
upperneck 0.503178 -1.743 -0.948907
head 3.04494 -0.763277 -0.228008
rclavicle -3.21783e-014 1.59028e-015
rhumerus -55.524 14.7473 -98.9996
rradius 56.843
rwrist -44.646
rhand -36.4647 -18.7044
rfingers 7.12502
rthumb -9.55815 -48.4676
lclavicle -3.21783e-014 1.59028e-015
lhumerus 19.3217 -27.2197 13.7002
lradius 56.4805
lwrist 15.7669
lhand -3.2018 -17.2351
lfingers 7.12502
lthumb 22.5203 11.4716
rfemur -61.9993 -4.56358 21.8962
rtibia 93.6368
rfoot 12.7442 -3.86482
rtoes -0.377867
lfemur -76.8057 46.5747 -14.0807
ltibia 153.266
lfoot -5.6403 -29.6934
ltoes -33.4131
310
root 1.73235 1.87261 24.4524 -793.369 -173.218 -727.279
lowerback 74.3261 6.2294 4.82996
upperback 20.2798 -11.0288 0.100395
thorax 2.4211 -14.2563 1.81825
lowerneck -16.4299 -1.85975 -1.26904
upperneck 0.521715 -1.81721 -0.83012
head 3.0638 -0.794839 -0.180691
rclavicle 4.35835e-014 6.16232e-015
rhumerus -55.9828 14.7698 -99.182
rradius 57.3339
rwrist -44.8919
rhand -36.473 -18.7831
rfingers 7.12502
rthumb -9.56616 -48.546
lclavicle 4.35835e-014 6.16232e-015
lhumerus 19.4663 -27.3988 13.7602
lradius 56.2029
lwrist 15.7448
lhand -3.21987 -17.2695
lfingers 7.12502
lthumb 22.5029 11.4393
rfemur -62.064 -4.68485 21.5616
rtibia 93.6605
rfoot 13.0848 -3.75133
rtoes -0.134534
lfemur -77.3539 45.6885 -14.7758
ltibia 153.285
lfoot -5.44367 -29.4528
ltoes -34.0184
